<svg width="31" height="31" viewBox="0 0 31 31" fill="none" xmlns="http://www.w3.org/2000/svg">
<path d="M29.1313 24.1963C29.2752 24.6285 29.0123 25.3588 28.5444 25.8266L25.5773 28.7938C24.8755 29.496 23.5574 29.7665 22.6358 29.3976L21.2648 28.8496C13.5852 25.7774 4.85616 17.0488 1.78444 9.36881L1.236 7.99819C0.867566 7.07663 1.13803 5.7585 1.83975 5.05678L4.80694 2.08959C5.27475 1.62131 6.00553 1.35834 6.43725 1.50272C8.81288 2.29444 11.3844 4.86553 12.1762 7.24116C12.3201 7.67287 12.0571 8.40366 11.5893 8.87147L9.89382 10.5669C9.42553 11.0348 9.28632 11.8954 9.5821 12.4869L10.0241 13.3715C11.3558 16.0349 14.5991 19.2782 17.2626 20.6099L18.1466 21.0519C18.7387 21.3477 19.5988 21.208 20.0666 20.7402L21.7626 19.0448C22.2304 18.5769 22.9607 18.314 23.3929 18.4579C25.768 19.2496 28.3396 21.8212 29.1313 24.1963Z" fill="white"/>
<path d="M13.9841 5.94405L14.0938 7.14639C14.1238 7.47592 14.3493 7.70842 14.5977 7.66483C14.5977 7.66483 15.0576 7.63061 15.5207 7.64326C17.4833 7.68967 19.3527 8.49967 20.7388 9.8942C22.1333 11.2803 22.9429 13.1497 22.9935 15.1161C23.0108 15.7526 22.9401 16.3822 22.9335 16.407C22.8529 16.7281 23.0488 17.0487 23.3713 17.1233L24.5371 17.3923C24.8596 17.4669 25.1858 17.2662 25.2646 16.9451C25.3194 16.7244 25.4113 15.8923 25.3888 15.0528C25.3251 12.4714 24.261 10.017 22.4343 8.19873C20.6155 6.37155 18.1616 5.30748 15.5802 5.2442C15.0243 5.2292 14.4726 5.26436 14.4726 5.26436C14.173 5.30983 13.9546 5.61452 13.9841 5.94405Z" fill="white"/>
<path fill-rule="evenodd" clip-rule="evenodd" d="M13.6378 2.13222L13.7465 3.32565C13.7765 3.65519 14.0432 3.89144 14.3423 3.85253C14.3423 3.85253 14.8893 3.82347 15.4359 3.83659C18.4242 3.91722 21.2601 5.14253 23.3625 7.26175L23.3709 7.27019C23.3667 7.26597 23.3667 7.26597 23.3625 7.26175C23.3667 7.26597 23.3667 7.26597 23.3667 7.26597L23.3709 7.27019C25.4906 9.37253 26.7196 12.2127 26.796 15.1967C26.8176 16.0892 26.7267 16.9822 26.6615 17.2672C26.5879 17.5902 26.79 17.9122 27.1125 17.9867L28.282 18.2567C28.6045 18.3308 28.9256 18.1292 28.9992 17.8067C29.1089 17.3267 29.2195 16.2327 29.1951 15.1377C29.1018 11.5344 27.6225 8.1055 25.0621 5.5705C25.0621 5.5705 25.0621 5.5705 25.0579 5.56628L25.0621 5.5705C22.5276 3.01019 19.0982 1.53081 15.4996 1.44175C14.8575 1.42628 14.2171 1.45769 14.1787 1.46237C13.8501 1.50269 13.6078 1.80269 13.6378 2.13222ZM25.0579 5.56628C25.0621 5.5705 25.0621 5.5705 25.0621 5.5705L25.0579 5.56628Z" fill="white"/>
</svg>
