<svg width="21" height="24" viewBox="0 0 21 24" fill="none" xmlns="http://www.w3.org/2000/svg">
<g clip-path="url(#clip0_1_574)">
<path d="M20.8592 19.4926C20.9591 19.8234 20.7766 20.3825 20.452 20.7406L18.393 23.0119C17.906 23.5494 16.9913 23.7565 16.3518 23.4741L15.4004 23.0546C10.0714 20.7029 4.01411 14.0212 1.88257 8.14229L1.50199 7.09309C1.24633 6.38764 1.43401 5.37863 1.92095 4.84147L3.97995 2.57012C4.30458 2.21166 4.81168 2.01036 5.11126 2.12088C6.75977 2.72693 8.54423 4.69507 9.09363 6.51359C9.19349 6.84406 9.01101 7.40347 8.68638 7.76157L7.50985 9.05944C7.1849 9.41754 7.0883 10.0763 7.29354 10.5292L7.60028 11.2063C8.52439 13.2451 10.775 15.7278 12.6232 16.7472L13.2367 17.0856C13.6475 17.312 14.2444 17.2051 14.569 16.847L15.7459 15.5491C16.0705 15.191 16.5773 14.9897 16.8772 15.0999C18.5253 15.7059 20.3098 17.6744 20.8592 19.4926Z" fill="black"/>
<path d="M10.348 5.52075L10.4242 6.44113C10.445 6.69338 10.6014 6.87136 10.7738 6.83799C10.7738 6.83799 11.0929 6.8118 11.4143 6.82148C12.7762 6.85701 14.0734 7.47705 15.0353 8.54455C16.003 9.60559 16.5647 11.0366 16.5999 12.5418C16.6119 13.0291 16.5628 13.511 16.5582 13.53C16.5023 13.7758 16.6382 14.0213 16.862 14.0783L17.671 14.2843C17.8948 14.3413 18.1212 14.1878 18.1758 13.942C18.2139 13.773 18.2776 13.136 18.262 12.4934C18.2178 10.5174 17.4794 8.63856 16.2118 7.24669C14.9497 5.848 13.2469 5.03347 11.4556 4.98503C11.0698 4.97355 10.687 5.00046 10.687 5.00046C10.4791 5.03526 10.3276 5.2685 10.348 5.52075Z" fill="black"/>
<path fill-rule="evenodd" clip-rule="evenodd" d="M10.1077 2.60284L10.1832 3.51641C10.204 3.76866 10.3891 3.9495 10.5966 3.91972C10.5966 3.91972 10.9762 3.89748 11.3555 3.90752C13.4291 3.96924 15.397 4.9072 16.8559 6.52944L16.8617 6.5359C16.8588 6.53267 16.8588 6.53267 16.8559 6.52944C16.8588 6.53267 16.8588 6.53267 16.8588 6.53267L16.8617 6.5359C18.3326 8.14522 19.1855 10.3193 19.2385 12.6036C19.2535 13.2868 19.1904 13.9704 19.1452 14.1885C19.0941 14.4357 19.2343 14.6823 19.4581 14.7393L20.2697 14.946C20.4935 15.0027 20.7163 14.8484 20.7673 14.6015C20.8435 14.2341 20.9202 13.3966 20.9033 12.5584C20.8386 9.80011 19.812 7.17532 18.0353 5.23481C18.0353 5.23481 18.0353 5.23481 18.0324 5.23158L18.0353 5.23481C16.2766 3.27492 13.8968 2.14247 11.3997 2.0743C10.9541 2.06246 10.5097 2.0865 10.4831 2.09008C10.255 2.12094 10.0869 2.35059 10.1077 2.60284ZM18.0324 5.23158C18.0353 5.23481 18.0353 5.23481 18.0353 5.23481L18.0324 5.23158Z" fill="black"/>
</g>
<defs>
<clipPath id="clip0_1_574">
<rect width="20.8177" height="22.9647" fill="white" transform="translate(0 0.622314)"/>
</clipPath>
</defs>
</svg>
